<svg xmlns="http://www.w3.org/2000/svg" viewBox="0 0 3100 800" width="100%" height="100%">
  
  <!-- LOGO SEMBOLÜ -->
  <g transform="translate(400, 400)">
    <path 
      d="
        M 56.5, 56.5 
        L 156.36, 156.36 
        A 90,90 0 0,1 92.72, 310 
        L -92.72, 310 
        A 90,90 0 0,1 -156.36, 156.36 
        L 156.36, -156.36 
        A 90,90 0 0,0 92.72, -310 
        L -92.72, -310 
        A 90,90 0 0,0 -156.36, -156.36 
        L -56.5, -56.5
      " 
      fill="none" 
      stroke="#0ABAB5" 
      stroke-width="120" 
      stroke-linecap="butt" 
      stroke-linejoin="round"
    />
  </g>
  <g fill="none" stroke="#0ABAB5" stroke-width="110" stroke-linecap="butt" stroke-linejoin="round">
    <path d="M 945 200 L 1055 200 L 1055 325 L 945 435 Z" fill="#0ABAB5" stroke="none" />
    <path d="M 1055 600 L 945 600 L 945 475 L 1055 365 Z" fill="#0ABAB5" stroke="none" />
    
    <path d="M 1250 600 V 255 L 1450 545 L 1650 255 V 600" />
    
    <path d="M 2100 255 H 1905 V 545 H 2100 M 1905 400 H 2050" />
    
    <path d="M 2548 298 A 145 145 0 1 0 2548 502" />
    
    <path d="M 2985 255 H 2790 V 545 H 2985 M 2790 400 H 2935" />
    
  </g>
</svg>
